<svg xmlns="http://www.w3.org/2000/svg" width="1024" height="1008" viewBox="0 0 1024 1008">
<g>
<path d="M 548.00 892.02 L 548.00 921.00 L 458.00 921.00 L 458.00 891.17 L 450.75 886.74 C446.76,884.31 428.76,873.40 410.75,862.50 L 378.00 842.68 L 378.00 745.11 L 365.25 737.22 C358.24,732.88 339.67,721.65 324.00,712.27 C308.33,702.90 269.62,679.72 238.00,660.78 C206.38,641.84 171.61,621.05 160.75,614.59 L 141.00 602.83 L 141.00 384.00 L 183.82 384.00 L 188.22 377.75 C194.74,368.49 224.13,325.46 239.96,302.00 C247.57,290.73 254.85,280.43 256.15,279.12 C257.44,277.80 264.80,273.04 272.50,268.53 C295.61,254.98 376.32,206.95 433.00,173.01 L 457.50 158.34 L 457.77 139.67 L 458.04 121.00 L 503.27 121.00 L 548.50 121.00 L 548.50 157.48 L 559.50 164.08 C565.55,167.71 595.25,185.43 625.50,203.46 C655.75,221.49 683.65,238.15 687.50,240.49 C691.35,242.82 706.76,252.00 721.74,260.89 C744.07,274.14 749.52,277.81 752.02,281.27 C753.70,283.60 763.46,297.65 773.72,312.50 C783.97,327.35 796.66,345.67 801.93,353.22 C807.19,360.76 814.15,370.78 817.39,375.47 L 823.27 384.00 L 866.01 384.00 L 865.50 603.32 L 841.00 618.01 C816.24,632.85 747.54,673.97 719.00,691.03 C710.47,696.12 701.03,701.82 698.00,703.69 C694.97,705.57 678.33,715.57 661.00,725.92 L 629.50 744.74 L 629.00 793.99 L 628.50 843.24 L 591.50 865.56 C571.15,877.83 553.04,888.81 551.25,889.95 ZM 281.35 558.25 L 300.20 577.97 L 378.45 577.89 C421.49,577.84 457.20,577.49 457.81,577.12 C458.42,576.74 450.73,573.66 440.71,570.29 C430.70,566.91 404.73,558.10 383.00,550.71 C283.27,516.80 223.76,496.91 223.33,497.34 C223.15,497.51 231.90,506.85 242.76,518.09 C253.62,529.32 270.98,547.40 281.35,558.25 ZM 552.53 577.05 C552.89,577.64 582.45,578.00 629.81,577.99 L 706.50 577.99 L 741.04 542.74 C787.34,495.50 787.56,495.26 780.39,498.08 C777.47,499.23 759.95,505.18 657.00,539.96 C647.54,543.16 638.91,546.07 631.06,548.72 C559.14,573.01 551.70,575.52 551.89,576.44 C551.93,576.65 552.36,576.78 552.53,577.05 Z" fill="rgb(0,0,0)"/>
<path d="M 348.99 577.92 C366.04,577.81 387.69,577.59 405.34,577.34 C443.29,576.80 452.00,576.42 452.00,575.34 C452.00,574.92 451.96,574.54 451.89,574.29 C455.82,575.81 458.16,576.90 457.81,577.12 C457.20,577.49 421.49,577.84 378.45,577.89 ZM 748.39 535.24 C766.71,516.48 781.00,501.47 781.00,500.95 C781.00,500.39 780.43,499.72 779.74,499.45 C778.51,498.98 769.78,501.86 657.00,539.96 C759.95,505.18 777.47,499.23 780.39,498.08 C787.16,495.41 787.35,495.48 748.39,535.24 ZM 259.86 509.12 C235.77,501.18 228.45,499.15 227.81,499.79 C227.15,500.45 229.15,503.42 233.75,508.64 C233.96,508.88 234.17,509.12 234.38,509.36 C227.75,502.39 223.20,497.46 223.33,497.34 C223.52,497.14 236.32,501.28 259.86,509.12 ZM 445.53 571.95 C441.32,570.53 435.28,568.48 428.48,566.15 C433.57,567.87 437.81,569.31 440.71,570.29 C442.39,570.85 444.01,571.41 445.53,571.95 ZM 251.45 527.10 C255.54,531.32 260.73,536.72 266.41,542.66 C261.42,537.46 256.22,532.05 251.45,527.10 Z" fill="rgb(140,122,115)"/>
<path d="M 547.26 984.51 C527.11,986.44 526.03,986.42 525.89,984.25 C525.41,976.94 525.28,940.16 525.71,934.75 L 526.26 928.00 L 546.00 928.00 L 546.00 947.00 L 550.81 947.00 C557.51,947.00 588.88,941.72 604.50,937.96 C616.66,935.03 644.38,927.02 649.30,925.01 C650.51,924.52 656.80,922.06 663.29,919.55 C722.00,896.82 779.56,857.10 824.67,808.19 C894.13,732.90 933.88,639.96 940.03,538.50 C941.59,512.67 940.72,493.24 936.45,458.51 C931.48,418.17 917.18,370.54 897.98,330.40 C887.08,307.61 869.46,278.15 856.77,261.50 C856.35,260.95 853.44,257.12 850.29,253.00 C834.74,232.57 806.52,202.86 787.50,186.87 C761.48,165.01 730.11,144.22 699.00,128.25 C683.67,120.38 651.93,107.54 634.50,102.16 C605.14,93.10 565.61,85.05 550.28,85.01 L 547.05 85.00 L 546.50 113.50 L 537.58 113.79 C531.13,114.00 528.44,113.73 527.85,112.79 C526.74,111.03 526.80,49.86 527.92,48.09 C530.38,44.20 584.17,51.00 618.14,59.50 C682.43,75.58 741.98,104.59 795.50,145.89 C827.29,170.42 861.14,204.84 884.33,236.20 C907.46,267.48 928.41,303.45 938.97,330.00 C939.95,332.48 942.43,338.55 944.47,343.50 C953.52,365.46 964.32,401.88 968.99,426.16 C974.43,454.47 977.99,490.64 977.98,517.50 C977.96,574.04 964.59,641.13 942.98,693.11 C929.22,726.20 905.16,768.73 886.91,792.19 C859.73,827.14 841.36,846.89 814.32,870.25 C737.42,936.67 648.22,974.84 547.26,984.51 ZM 481.00 928.00 L 481.00 986.00 L 476.75 985.86 C445.49,984.85 390.99,974.64 357.50,963.52 C265.89,933.10 188.88,878.92 127.91,802.00 C91.96,756.65 61.34,696.30 46.97,642.50 C35.08,598.00 31.06,569.46 30.27,524.01 C29.63,487.19 30.56,474.56 37.02,432.50 C39.91,413.72 50.23,376.17 59.07,352.32 C70.65,321.06 88.76,285.85 108.35,256.50 C146.88,198.75 202.54,146.22 261.50,111.96 C275.01,104.10 305.68,88.54 316.50,84.04 C350.79,69.78 390.20,58.48 426.00,52.65 C451.06,48.56 455.36,48.02 467.99,47.34 L 480.00 46.69 L 480.00 114.00 L 470.61 114.00 C462.96,114.00 461.10,113.71 460.61,112.42 C460.27,111.55 460.00,104.97 460.00,97.79 L 460.00 84.74 L 453.75 85.43 C417.39,89.43 366.23,102.54 338.55,114.95 C336.32,115.95 331.12,118.21 327.00,119.98 C314.05,125.53 292.48,136.66 279.24,144.62 C243.72,165.98 217.24,187.29 185.03,220.45 C128.92,278.21 87.63,359.55 73.59,440.00 C68.09,471.58 67.62,477.37 67.56,514.50 C67.49,555.82 68.91,570.82 76.02,604.00 C83.74,640.00 98.31,681.05 113.29,709.00 C126.77,734.16 140.02,755.42 152.84,772.50 C188.47,819.97 233.62,860.59 283.15,889.73 C322.04,912.61 360.07,927.69 406.00,938.44 C422.61,942.33 450.45,947.00 456.98,947.00 L 461.00 947.00 L 461.00 939.08 C461.00,938.69 461.00,938.31 461.00,937.94 C460.99,932.89 460.99,930.40 462.23,929.18 C463.44,927.99 465.82,927.99 470.52,928.00 C470.87,928.00 471.23,928.00 471.61,928.00 ZM 552.53 577.05 C552.36,576.78 551.93,576.65 551.89,576.44 C551.70,575.52 559.14,573.01 631.05,548.73 L 631.06 548.72 C638.91,546.07 647.54,543.16 657.00,539.96 C769.78,501.86 778.51,498.98 779.74,499.45 C780.43,499.72 781.00,500.39 781.00,500.95 C781.00,501.47 766.71,516.48 748.39,535.24 C746.08,537.60 743.63,540.10 741.04,542.74 L 706.50 577.99 L 629.81 577.99 C582.45,578.00 552.89,577.64 552.53,577.05 ZM 281.35 558.25 C277.20,553.90 271.93,548.41 266.41,542.65 C260.72,536.71 255.54,531.32 251.46,527.10 L 251.45 527.10 C248.31,523.84 245.35,520.77 242.76,518.09 C239.76,514.98 236.92,512.02 234.38,509.36 C234.17,509.12 233.96,508.88 233.75,508.64 C229.15,503.42 227.15,500.45 227.81,499.79 C228.45,499.15 235.77,501.18 259.86,509.12 C287.30,518.27 329.33,532.46 383.00,550.71 C398.43,555.96 416.01,561.93 428.48,566.15 C435.28,568.48 441.32,570.53 445.53,571.95 C447.91,572.79 450.07,573.59 451.89,574.29 C451.96,574.54 452.00,574.92 452.00,575.34 C452.00,576.42 443.29,576.80 405.34,577.34 C387.70,577.59 366.04,577.81 349.00,577.92 L 348.99 577.92 L 300.20 577.97 Z" fill="rgb(238,94,46)"/>
</g>
</svg>
